<?xml version="1.0" standalone="no"?>
<!DOCTYPE svg PUBLIC "-//W3C//DTD SVG 20010904//EN"
 "http://www.w3.org/TR/2001/REC-SVG-20010904/DTD/svg10.dtd">
<svg version="1.0" xmlns="http://www.w3.org/2000/svg"
 width="999.000000pt" height="955.000000pt" viewBox="0 0 999.000000 955.000000"
 preserveAspectRatio="xMidYMid meet">

<g transform="translate(0.000000,955.000000) scale(0.100000,-0.100000)"
fill="#000000" stroke="none">
<path d="M2144 8190 c-51 -11 -91 -46 -110 -95 -29 -77 -6 -143 67 -193 28
-20 43 -23 87 -20 118 10 183 118 133 222 -33 68 -104 103 -177 86z"/>
<path d="M7658 7726 c-25 -8 -59 -23 -75 -34 -16 -11 -35 -20 -43 -19 -8 1
-34 -4 -57 -11 -63 -19 -59 -46 10 -77 44 -21 59 -23 88 -15 18 6 35 10 36 10
2 0 3 -11 3 -25 0 -15 -6 -25 -14 -25 -8 0 -18 -9 -21 -20 -8 -24 -28 -26 -45
-5 -16 19 -70 19 -96 0 -10 -8 -35 -15 -55 -15 -20 0 -42 -7 -49 -15 -7 -9
-29 -15 -51 -15 -21 0 -45 -7 -53 -16 -19 -18 -19 -20 -5 -45 8 -16 20 -20 57
-19 93 3 102 -3 57 -42 -14 -12 -25 -29 -25 -39 0 -38 64 -59 110 -35 21 10
46 13 79 9 34 -4 57 -1 80 11 27 14 36 15 59 4 15 -7 28 -21 30 -30 3 -16 1
-16 -27 -2 -24 12 -35 13 -53 3 -12 -6 -41 -13 -65 -15 -58 -4 -83 -13 -83
-30 0 -8 0 -17 -1 -21 -1 -9 68 -47 100 -56 12 -3 35 -1 52 3 17 5 52 6 80 3
41 -5 53 -11 66 -34 15 -25 24 -29 61 -29 l43 0 -37 45 c-42 51 -49 47 89 49
74 1 91 4 102 19 19 27 9 43 -37 61 -43 18 -47 39 -7 44 45 6 79 24 79 43 0
30 -34 56 -83 63 -26 4 -49 11 -52 17 -4 5 -20 9 -36 9 -40 0 -33 19 11 34 28
9 35 16 35 36 0 31 -39 51 -104 55 -26 1 -58 8 -71 15 -12 7 -38 10 -57 7 -20
-4 -31 -2 -28 4 4 5 21 9 39 9 18 0 41 7 52 15 10 8 36 15 57 15 89 0 104 45
28 83 -63 32 -115 39 -173 23z m-20 -299 c3 -24 0 -27 -27 -27 -17 0 -31 5
-31 10 0 6 4 10 9 10 5 0 13 9 16 21 9 27 29 19 33 -14z m62 18 c10 -12 9 -15
-8 -15 -11 0 -22 7 -26 15 -3 9 0 15 8 15 7 0 19 -7 26 -15z m90 -27 c0 -4
-17 -8 -37 -8 -20 0 -45 -7 -55 -17 -16 -15 -18 -15 -18 0 0 10 13 20 33 26
37 10 77 10 77 -1z m-253 -14 c-3 -3 -12 -4 -19 -1 -8 3 -5 6 6 6 11 1 17 -2
13 -5z m112 -30 c2 -2 -7 -4 -22 -4 -14 0 -29 5 -32 10 -6 10 42 4 54 -6z
m103 -106 c-9 -9 -15 -9 -24 0 -9 9 -7 12 12 12 19 0 21 -3 12 -12z m48 -72
c0 -2 -7 -6 -15 -10 -8 -3 -15 -1 -15 4 0 6 7 10 15 10 8 0 15 -2 15 -4z m-80
-36 c0 -13 -11 -13 -30 0 -12 8 -11 10 8 10 12 0 22 -4 22 -10z"/>
<path d="M2788 7319 c-10 -5 -18 -21 -18 -34 0 -17 -12 -30 -46 -50 -39 -23
-99 -70 -196 -153 -16 -13 -24 -12 -80 15 -99 48 -151 58 -288 58 -151 0 -234
-22 -331 -88 -85 -56 -124 -119 -124 -197 l0 -57 -58 -39 c-78 -52 -198 -180
-248 -265 -97 -162 -135 -317 -126 -514 6 -147 27 -237 84 -354 45 -94 161
-215 246 -256 32 -15 59 -26 62 -24 2 2 -14 39 -35 83 -57 116 -84 237 -85
376 l0 115 115 19 c170 27 839 29 1015 3 85 -13 124 -23 133 -35 11 -13 12
-40 8 -110 -11 -157 -51 -306 -112 -409 -28 -48 -21 -52 39 -22 157 79 269
232 319 437 30 123 30 313 0 435 -53 217 -187 409 -367 530 -64 43 -67 47 -70
89 -2 23 -4 49 -6 57 -3 11 18 19 81 33 47 9 108 26 135 37 42 15 54 17 68 6
40 -29 89 16 68 61 -15 33 -65 33 -86 0 -11 -17 -28 -25 -59 -28 -24 -3 -85
-18 -135 -33 l-91 -28 -30 28 c-17 16 -30 34 -30 40 0 6 32 31 72 55 39 25 94
66 123 92 40 37 56 45 77 41 20 -4 30 1 43 21 16 24 16 28 1 51 -17 26 -40 31
-68 14z"/>
<path d="M7300 6760 c12 -12 33 -20 53 -20 37 0 57 -15 57 -42 0 -15 -8 -18
-49 -18 -44 0 -49 -2 -44 -19 4 -15 15 -21 47 -23 l41 -3 -3 -67 c-2 -44 0
-68 7 -68 6 0 11 -7 11 -15 0 -8 -4 -15 -10 -15 -6 0 -10 -28 -10 -65 0 -37 4
-65 10 -65 6 0 10 -7 10 -15 0 -8 -4 -15 -10 -15 -6 0 -10 -27 -10 -61 0 -56
2 -60 21 -57 20 3 21 7 19 226 l-1 222 156 0 155 0 0 -225 c0 -218 1 -225 20
-225 18 0 20 7 20 60 0 33 -4 60 -10 60 -5 0 -10 7 -10 15 0 8 5 15 10 15 6 0
10 28 10 65 0 37 -4 65 -10 65 -5 0 -10 7 -10 15 0 8 5 15 10 15 6 0 10 30 10
70 l0 70 39 0 c30 0 40 4 44 20 5 18 0 20 -40 20 -42 0 -44 1 -41 28 3 23 8
27 41 30 21 2 47 12 58 23 19 19 16 19 -296 19 l-315 0 20 -20z m268 -52 l3
-28 -65 0 c-68 0 -75 5 -60 45 5 13 18 15 63 13 53 -3 56 -5 59 -30z m180 -1
l3 -28 -63 3 c-55 3 -63 6 -64 23 -1 33 5 36 64 33 54 -3 57 -4 60 -31z"/>
<path d="M7320 6550 c-11 -7 -11 -14 0 -40 10 -23 10 -34 1 -43 -14 -14 -15
-127 -1 -127 6 0 10 -7 10 -15 0 -8 -4 -15 -10 -15 -6 0 -10 -27 -10 -61 0
-56 2 -60 21 -57 21 3 22 7 23 180 1 178 -3 197 -34 178z"/>
<path d="M7834 6534 c3 -9 6 -89 6 -178 0 -155 1 -162 20 -163 18 -2 20 4 20
58 0 33 -4 59 -10 59 -5 0 -10 7 -10 15 0 8 5 15 10 15 15 0 13 123 -2 138 -9
9 -10 15 -2 20 6 4 14 17 18 30 7 20 4 22 -24 22 -25 0 -31 -3 -26 -16z"/>
<path d="M6885 6208 c-87 -65 -133 -83 -223 -83 -69 0 -80 -2 -65 -13 26 -18
79 -31 161 -39 68 -6 85 -14 62 -28 -5 -3 -10 -35 -10 -71 0 -57 -2 -65 -17
-62 -15 3 -19 16 -21 71 -4 88 -22 87 -22 -2 l0 -69 -37 -13 c-21 -7 -70 -13
-110 -14 -40 0 -69 -3 -65 -7 4 -4 58 -12 120 -19 l112 -12 0 -149 c0 -141 1
-148 20 -148 19 0 20 7 20 150 l0 150 125 0 125 0 0 -148 c0 -126 2 -149 15
-149 13 0 15 23 15 147 l0 147 120 13 c66 6 120 16 120 20 0 5 -24 6 -52 4
-29 -3 -75 1 -103 8 -55 14 -61 26 -64 116 -2 69 -21 39 -21 -34 0 -57 -2 -64
-20 -64 -18 0 -20 7 -20 64 0 35 -2 71 -6 79 -4 11 11 16 73 21 64 6 163 35
163 48 0 2 -37 3 -83 3 -89 1 -124 13 -220 81 -26 19 -48 34 -50 33 -1 0 -20
-14 -42 -31z m143 -226 l-3 -67 -92 -3 -93 -3 0 73 0 73 95 -3 96 -3 -3 -67z"/>
<path d="M1785 5813 c-11 -2 -33 -9 -50 -16 -27 -10 -13 -13 115 -23 80 -6
156 -14 170 -18 l25 -7 -23 20 c-45 39 -162 61 -237 44z"/>
<path d="M2392 5801 c-30 -10 -61 -26 -70 -35 -16 -16 -16 -17 0 -11 10 4 86
13 170 19 l153 12 -54 17 c-70 22 -132 21 -199 -2z"/>
<path d="M6690 5670 c0 -100 3 -120 15 -120 13 0 15 20 15 120 0 100 -2 120
-15 120 -12 0 -15 -20 -15 -120z"/>
<path d="M7140 5669 c0 -109 2 -120 18 -117 15 3 17 18 20 121 3 112 2 117
-18 117 -19 0 -20 -6 -20 -121z"/>
<path d="M2107 5416 c-16 -13 -16 -15 13 -40 18 -14 42 -26 55 -26 13 0 37 12
55 26 29 25 29 27 13 40 -10 7 -40 13 -68 13 -27 0 -58 -6 -68 -13z"/>
<path d="M1628 5253 c-90 -195 -157 -439 -179 -660 -14 -129 -5 -841 11 -918
7 -35 19 -58 40 -77 l30 -28 645 0 645 0 30 28 c44 39 49 85 57 502 6 389 -1
522 -38 705 -25 124 -95 336 -150 454 l-42 90 -56 -48 c-31 -27 -66 -53 -77
-60 -12 -6 -35 -34 -52 -64 -39 -70 -128 -150 -237 -214 -48 -29 -82 -54 -74
-56 100 -29 133 -42 183 -72 55 -33 63 -35 149 -35 l91 0 -34 -30 c-19 -16
-45 -29 -57 -30 -13 0 -23 -2 -23 -5 0 -2 14 -26 30 -52 17 -26 30 -52 30 -58
0 -13 -232 -107 -251 -102 -8 2 -10 2 -5 -1 5 -3 -22 -20 -60 -38 -38 -18 -66
-34 -62 -34 12 0 286 108 336 134 l51 26 16 -51 c26 -78 21 -212 -10 -307 -3
-9 -24 -3 -72 21 -38 19 -90 42 -118 52 -27 10 -55 22 -60 26 -26 19 -185 63
-232 63 -28 1 -54 4 -57 7 -7 7 23 102 35 109 4 3 -13 57 -37 120 -25 63 -45
123 -46 133 -1 9 -6 17 -11 17 -4 0 -5 5 -2 10 3 6 2 10 -3 10 -9 0 -35 50
-29 56 10 11 130 34 177 34 l55 1 -34 14 c-97 43 -240 170 -275 245 -16 33
-38 61 -67 81 -24 17 -60 47 -80 66 l-36 34 -45 -98z m331 -483 l10 -30 -77 0
c-70 1 -80 3 -112 30 l-35 29 102 1 101 0 11 -30z m316 -420 l60 -28 -177 -1
-177 -1 10 30 11 30 106 -1 c96 0 113 -3 167 -29z"/>
<path d="M6710 5090 c0 -16 5 -30 10 -30 6 0 10 14 10 30 0 17 -4 30 -10 30
-5 0 -10 -13 -10 -30z"/>
<path d="M6700 4866 c0 -30 -5 -46 -15 -50 -8 -3 -15 -12 -15 -21 0 -11 11
-15 45 -15 38 0 45 3 45 20 0 11 -7 20 -15 20 -11 0 -15 12 -15 45 0 33 -4 45
-15 45 -11 0 -15 -12 -15 -44z"/>
<path d="M2107 4873 c-4 -3 -7 -81 -6 -172 0 -96 4 -158 9 -146 7 19 15 325 7
325 -2 0 -7 -3 -10 -7z"/>
<path d="M2245 4773 c-29 -69 -42 -90 -54 -86 -11 3 -12 2 -4 -4 17 -12 4 -66
-15 -58 -11 4 -12 2 -4 -7 7 -9 4 -29 -13 -70 -31 -77 -22 -75 12 2 14 33 29
57 34 55 4 -3 11 0 15 6 4 8 3 9 -4 5 -15 -9 -15 4 -2 24 9 13 11 13 20 0 5
-8 10 -10 10 -4 0 5 -4 14 -9 20 -6 5 4 43 25 98 46 119 38 134 -11 19z"/>
<path d="M1980 4839 c0 -5 5 -7 10 -4 6 3 10 8 10 11 0 2 -4 4 -10 4 -5 0 -10
-5 -10 -11z"/>
<path d="M2005 4830 c-3 -6 1 -7 9 -4 18 7 21 14 7 14 -6 0 -13 -4 -16 -10z"/>
<path d="M1990 4800 c0 -5 5 -10 10 -10 6 0 10 5 10 10 0 6 -4 10 -10 10 -5 0
-10 -4 -10 -10z"/>
<path d="M2405 4730 c-16 -17 -35 -28 -42 -26 -7 3 -10 -1 -6 -10 3 -9 -2 -14
-16 -14 -15 0 -21 -6 -21 -21 0 -15 -5 -19 -16 -15 -9 4 -13 2 -8 -5 3 -6 -26
-44 -67 -86 -41 -41 -65 -71 -54 -65 11 6 49 40 85 76 35 36 68 66 73 66 11 0
37 26 37 36 0 5 17 25 37 46 20 21 34 40 32 43 -3 3 -18 -9 -34 -25z"/>
<path d="M2310 4706 c0 -2 7 -7 16 -10 8 -3 12 -2 9 4 -6 10 -25 14 -25 6z"/>
<path d="M2290 4681 c0 -6 4 -13 10 -16 6 -3 7 1 4 9 -7 18 -14 21 -14 7z"/>
<path d="M6010 4538 l-195 -96 119 -1 119 -1 56 -52 c85 -80 85 -80 92 -203
l6 -110 1 113 2 114 67 69 66 69 130 0 130 0 -99 48 c-54 27 -137 66 -184 87
-47 21 -92 44 -100 50 -12 8 -59 -12 -210 -87z m121 -135 c27 -42 21 -42 -22
3 -24 26 -29 35 -16 32 10 -1 27 -18 38 -35z m39 -4 c6 -22 14 -48 16 -57 3
-9 -8 4 -25 30 -34 53 -38 68 -16 68 8 0 19 -17 25 -41z m28 0 c4 -40 -12 -30
-22 14 -5 21 -3 28 6 25 7 -3 14 -20 16 -39z m38 25 c-3 -9 -8 -28 -11 -42 -3
-15 2 -8 11 16 9 24 22 42 31 42 9 0 13 -6 9 -15 -17 -42 -16 -47 4 -17 12 17
29 32 38 32 11 0 6 -10 -18 -35 -18 -19 -37 -32 -41 -29 -4 2 -13 -5 -20 -17
-9 -17 -13 -19 -20 -8 -10 16 -12 73 -2 82 12 13 25 7 19 -9z"/>
<path d="M6671 4575 c-1 -33 -4 -70 -7 -82 -4 -14 -2 -23 5 -23 6 0 11 9 11
20 0 27 18 26 22 -2 5 -32 28 -35 28 -4 0 17 5 26 16 26 8 0 13 -3 11 -7 -3
-5 -1 -17 4 -28 5 -14 8 -8 8 25 0 55 -16 150 -18 107 -1 -31 -21 -28 -21 4 0
10 -7 19 -15 19 -10 0 -15 -10 -15 -27 0 -29 -15 -22 -23 12 -3 11 -5 -7 -6
-40z m29 -31 c0 -14 -4 -23 -10 -19 -5 3 -10 15 -10 26 0 10 5 19 10 19 6 0
10 -12 10 -26z m50 0 c0 -14 -4 -23 -10 -19 -5 3 -10 15 -10 26 0 10 5 19 10
19 6 0 10 -12 10 -26z"/>
<path d="M2520 4480 c0 -5 5 -10 10 -10 6 0 10 5 10 10 0 6 -4 10 -10 10 -5 0
-10 -4 -10 -10z"/>
<path d="M2527 4444 c5 -13 -3 -15 -43 -13 -27 2 -112 1 -189 -1 -117 -3 -128
-4 -70 -9 76 -6 371 -1 343 6 -10 3 -18 8 -18 13 0 4 -7 10 -14 13 -10 4 -13
1 -9 -9z"/>
<path d="M2400 4361 c0 -6 4 -13 10 -16 6 -3 7 1 4 9 -7 18 -14 21 -14 7z"/>
<path d="M2435 4350 c3 -5 8 -10 11 -10 2 0 4 5 4 10 0 6 -5 10 -11 10 -5 0
-7 -4 -4 -10z"/>
<path d="M6650 4253 c0 -32 -3 -75 -6 -95 -5 -25 -3 -38 5 -38 6 0 11 11 11
25 0 36 38 35 42 -2 4 -36 26 -41 30 -6 4 40 40 39 49 -2 5 -22 7 -16 7 25 0
65 -15 175 -17 123 -1 -26 -5 -33 -21 -33 -16 0 -20 7 -20 30 0 20 -5 30 -15
30 -10 0 -15 -10 -15 -30 0 -24 -4 -30 -21 -30 -19 0 -21 4 -15 30 3 17 1 30
-4 30 -6 0 -10 -26 -10 -57z m50 -43 c0 -23 -4 -30 -20 -30 -16 0 -20 7 -20
30 0 23 4 30 20 30 16 0 20 -7 20 -30z m70 0 c0 -23 -4 -30 -20 -30 -16 0 -20
7 -20 30 0 23 4 30 20 30 16 0 20 -7 20 -30z"/>
<path d="M4910 4183 c-30 -18 -51 -33 -46 -33 5 0 29 12 53 26 44 25 44 25 76
7 18 -11 41 -22 52 -26 19 -6 19 -6 1 6 -10 7 -33 21 -50 33 l-31 20 -55 -33z"/>
<path d="M5915 4200 c-3 -6 1 -7 9 -4 18 7 21 14 7 14 -6 0 -13 -4 -16 -10z"/>
<path d="M5958 4193 c7 -3 16 -2 19 1 4 3 -2 6 -13 5 -11 0 -14 -3 -6 -6z"/>
<path d="M4891 4142 c-13 -2 -37 -12 -55 -23 l-31 -19 155 0 155 0 -33 20
c-33 20 -128 31 -191 22z"/>
<path d="M5730 4129 c-7 -11 -10 -23 -7 -25 2 -2 9 7 15 21 14 30 7 33 -8 4z"/>
<path d="M6080 4125 c0 -5 5 -17 10 -25 5 -8 10 -10 10 -5 0 6 -5 17 -10 25
-5 8 -10 11 -10 5z"/>
<path d="M6630 3981 c0 -89 -35 -277 -70 -373 -28 -77 -47 -112 -107 -198 -17
-25 -17 -25 3 -7 11 9 28 17 37 17 11 0 14 -5 10 -17 -10 -30 13 -3 74 87 32
47 72 93 91 103 l32 19 0 -106 c0 -88 3 -106 15 -106 12 0 15 18 15 100 0 90
2 100 18 100 22 0 67 -46 112 -115 45 -68 75 -104 67 -82 -8 22 25 24 43 2 7
-9 15 -14 17 -11 2 2 -12 26 -31 54 -81 112 -129 279 -152 521 -4 48 -9 69
-15 60 -6 -10 -9 -11 -9 -1 0 8 -22 12 -75 12 l-75 0 0 -59z m70 -7 c0 -27
-14 -25 -30 7 -9 16 -7 19 10 19 15 0 20 -7 20 -26z m88 -11 c3 -28 0 -33 -17
-33 -25 0 -27 13 -6 30 8 7 15 18 15 24 -1 6 -12 -2 -25 -19 l-25 -30 0 33 c0
30 2 33 28 30 22 -2 28 -8 30 -35z m-118 -3 l21 -30 -25 0 c-22 0 -26 4 -26
30 0 17 2 30 4 30 3 0 14 -13 26 -30z m27 -79 c0 -30 -4 -29 -36 12 -12 15
-11 17 11 17 21 0 25 -5 25 -29z m83 21 c0 -19 -23 -32 -37 -21 -20 17 -15 29
12 29 14 0 25 -4 25 -8z m20 -27 c0 -18 -5 -25 -20 -25 -20 0 -20 1 -4 25 9
14 18 25 20 25 2 0 4 -11 4 -25z m-142 3 c18 -18 15 -28 -8 -28 -13 0 -20 7
-20 20 0 23 10 26 28 8z m87 -18 c3 -5 1 -10 -4 -10 -6 0 -11 5 -11 10 0 6 2
10 4 10 3 0 8 -4 11 -10z m-105 -40 c-6 -11 -13 -20 -16 -20 -2 0 0 9 6 20 6
11 13 20 16 20 2 0 0 -9 -6 -20z m56 5 c4 -8 3 -23 0 -32 -6 -15 -8 -15 -23
-1 -16 17 -12 48 7 48 6 0 13 -7 16 -15z m71 -26 c-14 -23 -26 -24 -33 -4 -9
23 15 48 32 34 10 -8 11 -15 1 -30z m43 15 c0 -8 -5 -12 -10 -9 -6 4 -8 11 -5
16 9 14 15 11 15 -7z m-150 -24 c0 -5 -7 -10 -16 -10 -8 0 -12 5 -9 10 3 6 10
10 16 10 5 0 9 -4 9 -10z m135 0 c3 -5 -1 -10 -10 -10 -9 0 -13 5 -10 10 3 6
8 10 10 10 2 0 7 -4 10 -10z m-127 -32 c-2 -5 -8 -9 -13 -9 -5 0 -11 4 -13 9
-1 5 4 9 13 9 9 0 14 -4 13 -9z m129 -3 c-2 -5 -12 -9 -21 -9 -18 2 -18 2 -10
-20 9 -23 19 -20 34 12 12 25 13 26 21 7 15 -38 10 -43 -37 -42 -52 1 -67 18
-38 45 20 19 57 24 51 7z m-158 -42 c-20 -24 -36 -15 -31 17 4 30 5 30 23 14
14 -13 16 -20 8 -31z m61 6 c0 -22 -13 -25 -29 -6 -8 10 -7 17 1 25 15 15 28
6 28 -19z m-96 -51 c-6 -19 -5 -21 8 -11 17 15 28 7 28 -19 0 -12 -7 -18 -23
-18 -19 0 -23 5 -21 28 2 37 3 42 10 42 3 0 2 -10 -2 -22z m66 2 c-6 -11 -13
-20 -15 -20 -2 0 -9 9 -15 20 -9 18 -8 20 15 20 23 0 24 -2 15 -20z m128 8
c-3 -7 -11 -13 -18 -13 -7 0 -15 6 -17 13 -3 7 4 12 17 12 13 0 20 -5 18 -12z
m42 -4 c0 -8 -4 -12 -10 -9 -16 10 -12 -7 7 -27 15 -17 15 -18 -10 -18 -35 0
-42 15 -20 45 21 28 33 32 33 9z m-140 -35 c0 -10 -7 -19 -15 -19 -15 0 -21
31 -9 43 11 10 24 -3 24 -24z m62 -11 c-16 -16 -35 3 -26 26 6 16 8 16 22 2
13 -12 14 -18 4 -28z m-132 -43 c-20 -22 -70 -35 -70 -19 0 25 24 44 57 44
l36 0 -23 -25z m238 0 c11 -23 10 -25 -16 -25 -17 0 -38 10 -52 25 l-23 25 40
0 c33 0 42 -4 51 -25z m-278 -55 c-9 -17 -50 -30 -50 -16 0 20 16 36 36 36 22
0 23 -3 14 -20z m300 0 c9 -17 8 -20 -8 -20 -18 0 -42 18 -42 32 0 17 40 7 50
-12z m-332 -42 c-3 -7 -15 -15 -28 -16 -21 -3 -22 -2 -11 12 16 19 44 21 39 4z
m360 -6 c2 -7 -5 -12 -17 -12 -20 0 -35 13 -25 23 9 9 38 1 42 -11z m-393 -41
c-8 -13 -35 -15 -35 -2 0 5 8 11 18 13 21 5 26 2 17 -11z m418 0 c10 -10 7
-12 -12 -9 -14 1 -26 8 -28 15 -5 15 23 11 40 -6z"/>
<path d="M4816 4015 c-11 -8 -30 -15 -44 -15 -13 0 -20 -4 -17 -10 8 -13 395
-13 415 0 12 8 10 10 -10 10 -14 0 -38 7 -54 15 -40 21 -263 21 -290 0z"/>
<path d="M4780 3926 c0 -30 -4 -36 -40 -50 -22 -9 -48 -16 -58 -16 -15 0 -15
-2 -2 -10 24 -15 542 -13 563 3 15 10 13 12 -17 13 -50 1 -86 28 -86 64 l0 30
-180 0 -180 0 0 -34z m70 4 c0 -5 -11 -10 -25 -10 -14 0 -25 5 -25 10 0 6 11
10 25 10 14 0 25 -4 25 -10z m177 -22 c35 -18 63 -36 63 -40 0 -11 -34 -10
-65 2 -17 7 -24 7 -20 0 4 -6 -12 -10 -39 -10 -25 0 -46 5 -46 10 0 7 -6 7
-19 0 -25 -13 -71 -13 -71 0 0 6 6 10 13 10 7 0 33 13 57 29 25 16 49 30 55
30 5 1 37 -14 72 -31z m93 22 c0 -5 -11 -10 -25 -10 -14 0 -25 5 -25 10 0 6
11 10 25 10 14 0 25 -4 25 -10z"/>
<path d="M4950 3896 c0 -2 9 -6 20 -9 11 -3 18 -1 14 4 -5 9 -34 13 -34 5z"/>
<path d="M5480 3838 c0 -7 14 -34 30 -60 l30 -48 68 0 c39 0 75 5 84 13 15 11
68 91 68 102 0 3 -63 5 -140 5 -105 0 -140 -3 -140 -12z"/>
<path d="M4720 3770 c0 -36 -3 -41 -41 -61 -23 -11 -51 -18 -63 -15 -20 5 -21
5 -2 -9 16 -12 76 -15 340 -15 313 0 366 3 366 21 0 5 -6 6 -14 3 -8 -3 -35 4
-60 15 -44 19 -46 22 -46 60 l0 41 -240 0 -240 0 0 -40z m80 0 c0 -5 -11 -10
-25 -10 -14 0 -25 5 -25 10 0 6 11 10 25 10 14 0 25 -4 25 -10z m150 0 c0 -5
-9 -10 -20 -10 -11 0 -20 5 -20 10 0 6 9 10 20 10 11 0 20 -4 20 -10z m60 0
c0 -5 -9 -10 -20 -10 -11 0 -20 5 -20 10 0 6 9 10 20 10 11 0 20 -4 20 -10z
m160 0 c0 -5 -11 -10 -25 -10 -14 0 -25 5 -25 10 0 6 11 10 25 10 14 0 25 -4
25 -10z m-266 -37 c25 -16 46 -31 46 -34 0 -3 -30 -7 -66 -7 -60 -1 -65 0 -52
15 12 16 11 16 -12 0 -25 -17 -60 -23 -60 -9 0 7 78 60 92 61 4 1 27 -11 52
-26z m216 0 c27 -16 50 -31 50 -34 0 -4 -45 -7 -100 -7 -55 0 -100 3 -100 7 0
5 85 57 97 60 2 1 25 -11 53 -26z"/>
<path d="M5868 3733 c17 -2 47 -2 65 0 17 2 3 4 -33 4 -36 0 -50 -2 -32 -4z"/>
<path d="M4660 3585 l0 -56 -42 -19 c-32 -15 -37 -20 -20 -20 20 0 22 -5 22
-55 l0 -55 60 0 60 0 0 -45 0 -45 220 0 220 0 0 45 0 45 65 0 65 0 0 55 c0 50
2 55 23 56 15 0 8 6 -23 17 l-45 17 -3 58 -3 57 -299 0 -300 0 0 -55z m415
-31 c11 -6 14 -13 9 -16 -5 -4 -35 9 -67 29 l-57 35 -57 -36 c-31 -19 -60 -33
-65 -30 -5 3 21 25 58 48 l66 43 48 -31 c26 -17 55 -36 65 -42z m-335 47 c0
-11 -39 -21 -45 -11 -2 4 -2 10 2 14 10 9 43 7 43 -3z m60 0 c0 -12 -29 -23
-41 -15 -5 3 -7 10 -4 15 8 12 45 12 45 0z m370 0 c0 -12 -29 -23 -41 -15 -5
3 -7 10 -4 15 8 12 45 12 45 0z m60 -1 c0 -5 -7 -10 -15 -10 -8 0 -18 0 -22
-1 -4 0 -9 4 -11 10 -2 6 8 11 22 11 14 0 26 -4 26 -10z m-280 -105 c0 -8 -9
-15 -20 -15 -11 0 -20 7 -20 15 0 8 9 15 20 15 11 0 20 -7 20 -15z m60 0 c0
-8 -9 -15 -20 -15 -11 0 -20 7 -20 15 0 8 9 15 20 15 11 0 20 -7 20 -15z
m-168 -66 c5 -14 228 -16 237 -1 7 12 112 -15 128 -33 4 -4 0 -5 -9 -2 -10 4
-18 2 -18 -3 0 -6 -85 -10 -220 -10 -148 0 -220 3 -220 11 0 5 -4 7 -10 4 -5
-3 -10 -2 -10 3 0 5 24 16 53 24 67 20 65 20 69 7z"/>
<path d="M4253 3347 c-42 -32 -58 -56 -25 -38 28 16 88 70 77 70 -5 1 -29 -14
-52 -32z"/>
<path d="M3400 3331 c0 -20 -6 -21 -120 -21 -107 0 -120 2 -120 18 -1 10 -6 5
-14 -13 -20 -46 -83 -97 -109 -89 -21 6 -21 5 -4 -12 25 -27 179 -34 202 -10
21 20 69 21 85 1 24 -29 210 -15 210 16 0 4 -8 5 -18 2 -22 -5 -92 67 -92 96
0 11 -4 23 -10 26 -5 3 -10 -3 -10 -14z"/>
<path d="M5640 3296 c0 -13 -3 -32 -6 -41 -6 -14 -8 -13 -21 5 -19 27 -31 25
-45 -5 -16 -34 -26 -31 -34 10 -3 19 -10 38 -15 41 -5 3 -23 -19 -41 -48 l-33
-53 -5 49 -5 49 -48 -56 c-27 -32 -52 -57 -57 -57 -4 0 -2 17 5 38 7 20 12 38
10 40 -3 4 -150 -93 -230 -152 -33 -24 -80 -56 -104 -69 -26 -15 -46 -34 -48
-46 -3 -20 0 -20 686 -21 431 0 692 3 696 9 3 6 -33 28 -81 50 -47 23 -108 56
-134 75 -26 19 -61 41 -78 50 -17 9 -60 38 -96 66 -36 27 -68 50 -72 50 -4 0
-4 -19 -1 -42 l6 -43 -27 30 c-15 17 -35 41 -44 55 l-17 25 0 -44 c-1 -36 -3
-41 -15 -32 -8 6 -19 25 -26 42 -17 40 -24 29 -21 -31 1 -28 0 -50 -3 -50 -3
0 -22 29 -43 65 -40 69 -53 80 -53 41z"/>
<path d="M4295 3258 c-47 -24 -50 -26 -43 -33 2 -3 29 8 59 25 61 33 46 41
-16 8z"/>
<path d="M3270 3164 c0 -7 -23 -31 -51 -53 -54 -43 -73 -47 -201 -45 -21 0
-38 -1 -38 -3 0 -2 15 -12 33 -23 29 -18 50 -20 267 -20 217 0 238 2 268 20
17 11 32 21 32 23 0 2 -17 3 -37 3 -21 0 -66 1 -101 2 -61 2 -64 3 -117 55
-30 29 -55 48 -55 41z m99 -101 c2 -2 -39 -3 -93 -3 l-97 0 38 32 c21 18 42
39 46 46 7 10 20 2 55 -29 26 -23 49 -44 51 -46z"/>
<path d="M4858 3023 c7 -3 16 -2 19 1 4 3 -2 6 -13 5 -11 0 -14 -3 -6 -6z"/>
<path d="M4896 3021 c-6 -10 24 -25 32 -16 3 3 -1 5 -9 5 -11 0 -11 2 1 10 13
8 13 10 -2 10 -9 0 -19 -4 -22 -9z"/>
<path d="M3107 2958 c-50 -49 -103 -67 -165 -55 l-27 5 28 -24 c28 -23 32 -24
213 -24 116 0 184 -4 184 -10 0 -5 -3 -10 -7 -10 -29 -2 -103 -28 -92 -32 8
-3 43 3 79 14 61 19 67 19 116 4 28 -9 64 -16 80 -15 23 0 19 3 -21 14 -27 8
-53 14 -57 15 -5 0 -8 4 -8 9 0 5 38 11 85 12 70 3 88 8 106 25 l21 21 -49 -4
c-62 -6 -108 13 -153 63 l-35 39 -44 -47 c-37 -41 -49 -48 -81 -48 -32 0 -44
7 -81 48 l-44 47 -48 -47z m342 -20 l35 -38 -78 0 -79 0 39 43 c22 24 41 41
44 38 3 -3 21 -23 39 -43z m-254 2 l39 -40 -83 0 -84 0 39 40 c22 22 41 40 44
40 3 0 24 -18 45 -40z"/>
<path d="M4580 2990 c-83 -8 -105 -14 -165 -41 -37 -17 -40 -22 -39 -55 1 -20
14 -53 30 -77 16 -23 29 -43 29 -44 1 -2 26 7 56 19 100 39 255 29 402 -28 18
-7 57 82 57 130 0 33 -3 36 -52 54 -108 40 -204 52 -318 42z"/>
<path d="M4085 2670 c-94 -94 -145 -138 -155 -135 -8 4 3 -12 25 -34 38 -39
60 -56 36 -27 -9 11 19 43 136 159 126 126 145 148 134 161 -8 9 -19 16 -25
16 -6 0 -74 -63 -151 -140z"/>
<path d="M3280 2720 c0 -46 2 -81 4 -79 7 7 10 149 3 156 -4 3 -7 -31 -7 -77z"/>
<path d="M3383 2793 l-53 -4 0 -77 0 -77 55 0 55 0 0 82 c0 46 -1 82 -2 81 -2
-1 -27 -3 -55 -5z"/>
<path d="M3479 2798 c-6 -12 -4 -158 3 -158 4 0 8 36 8 80 0 67 -4 92 -11 78z"/>
<path d="M4442 2648 c-15 -15 -16 -70 0 -86 16 -16 90 -15 112 1 13 9 17 23
14 52 l-3 40 -55 3 c-34 2 -60 -2 -68 -10z"/>
<path d="M3678 2515 c-150 -145 -332 -308 -481 -430 -81 -67 -94 -81 -86 -97
5 -10 14 -18 20 -18 14 0 232 180 379 312 63 57 111 94 107 84 -6 -16 -5 -17
8 -6 8 7 15 18 15 24 0 20 44 56 68 56 11 0 24 5 28 11 4 8 -1 9 -17 4 -19 -6
-12 6 31 51 104 111 103 108 83 127 -17 15 -27 7 -155 -118z"/>
<path d="M4905 2540 c-15 -16 -31 -20 -89 -20 -49 0 -79 5 -94 16 l-22 15 0
-95 c0 -118 8 -126 116 -126 96 0 102 8 108 133 2 53 3 97 2 97 -2 0 -11 -9
-21 -20z"/>
<path d="M4390 2457 c0 -119 8 -127 116 -127 97 0 106 11 110 130 2 49 1 90
-2 90 -3 0 -12 -7 -20 -15 -23 -22 -161 -21 -186 2 -17 15 -18 12 -18 -80z"/>
<path d="M2094 2474 c-18 -14 -18 -15 4 -4 12 6 22 13 22 15 0 8 -5 6 -26 -11z"/>
<path d="M2188 2470 c6 -8 12 -29 12 -47 l0 -33 -59 0 -60 0 -4 33 c-3 22 -4
15 -5 -20 l-2 -53 70 0 70 0 0 54 c0 39 -5 57 -17 67 -15 11 -16 11 -5 -1z
m-38 -100 c0 -5 -4 -10 -10 -10 -5 0 -10 5 -10 10 0 6 5 10 10 10 6 0 10 -4
10 -10z"/>
<path d="M2070 1860 c0 -18 7 -20 69 -20 60 0 69 2 74 20 5 19 0 20 -69 20
-67 0 -74 -2 -74 -20z m80 0 c0 -5 -4 -10 -10 -10 -5 0 -10 5 -10 10 0 6 5 10
10 10 6 0 10 -4 10 -10z"/>
<path d="M2445 1755 c-5 -2 -22 -6 -37 -9 -14 -3 -40 -20 -57 -37 -25 -24 -31
-39 -31 -72 l0 -42 22 37 c27 47 75 70 135 67 49 -3 61 7 41 33 -13 16 -54 29
-73 23z"/>
<path d="M2286 1663 c-16 -16 -35 -73 -41 -125 -10 -82 7 -132 67 -190 l50
-48 19 24 c10 13 19 31 19 40 0 9 11 22 25 28 16 7 24 17 20 26 -3 7 -5 17 -5
21 0 4 -22 13 -49 20 -88 22 -114 63 -102 155 4 31 7 56 6 56 -1 0 -5 -3 -9
-7z"/>
<path d="M2475 1290 c3 -5 8 -10 11 -10 2 0 4 5 4 10 0 6 -5 10 -11 10 -5 0
-7 -4 -4 -10z"/>
</g>
</svg>
