<?xml version="1.0" standalone="no"?>
<!DOCTYPE svg PUBLIC "-//W3C//DTD SVG 20010904//EN"
 "http://www.w3.org/TR/2001/REC-SVG-20010904/DTD/svg10.dtd">
<svg version="1.0" xmlns="http://www.w3.org/2000/svg"
 width="204.000000pt" height="246.000000pt" viewBox="0 0 204.000000 246.000000"
 preserveAspectRatio="xMidYMid meet">

<g transform="translate(0.000000,246.000000) scale(0.100000,-0.100000)"
fill="#000000" stroke="none">
<path d="M825 2371 c-166 -41 -321 -128 -432 -242 -125 -128 -181 -228 -239
-424 -25 -85 -25 -325 0 -410 70 -237 190 -410 369 -532 170 -116 323 -158
547 -150 117 4 147 9 225 36 156 52 264 121 376 237 110 116 173 228 225 409
25 85 25 326 0 410 -42 141 -65 194 -132 295 -125 189 -323 322 -557 375 -93
20 -290 18 -382 -4z m745 -230 c0 -19 -73 -69 -116 -80 -23 -6 -46 -16 -50
-22 -8 -13 34 -9 169 14 168 30 32 -45 -188 -103 -214 -56 -289 -65 -540 -63
-206 1 -447 21 -478 40 -22 14 14 23 92 23 48 0 91 3 95 7 3 4 -26 19 -66 33
-120 43 -103 49 139 43 333 -8 602 23 843 96 73 22 100 25 100 12z m-130 -389
c0 -20 -76 -43 -305 -92 -82 -18 -100 -29 -47 -30 23 0 42 -4 42 -9 0 -10 -27
-20 -130 -47 -103 -27 -553 -37 -513 -11 6 4 65 15 130 24 120 17 120 17 31
37 -16 4 -28 11 -28 16 0 6 46 10 113 10 117 0 264 13 332 29 22 6 85 20 140
32 55 11 120 27 145 34 53 16 90 18 90 7z m-40 -97 c0 -27 -55 -45 -140 -45
-60 0 -81 3 -78 12 3 7 24 16 49 21 169 31 169 31 169 12z m-185 -122 c6 -44
22 -110 61 -248 17 -60 15 -110 -5 -110 -14 0 -22 19 -40 90 -6 21 -8 9 -7
-42 1 -72 1 -73 28 -73 15 0 80 -9 145 -20 65 -12 140 -25 166 -29 27 -5 53
-13 60 -20 15 -15 -18 -14 -238 4 -247 21 -612 21 -735 1 -256 -43 -321 17
-76 69 17 4 166 6 333 6 198 -1 302 3 298 9 -3 6 -17 10 -30 10 -31 0 -58 39
-80 115 -21 72 -33 245 -17 245 6 0 14 -16 18 -35 8 -43 28 -41 32 3 2 20 10
33 22 37 10 3 21 12 24 20 12 33 35 15 41 -32z m-349 -58 c6 -43 -2 -216 -12
-260 -5 -19 -13 -21 -72 -20 l-67 0 3 103 c3 107 19 183 40 190 8 2 12 -14 13
-60 1 -38 4 -54 7 -40 4 13 11 23 16 22 13 -2 23 19 31 68 9 57 32 55 41 -3z"/>
<path d="M1211 1324 c0 -11 3 -14 6 -6 3 7 2 16 -1 19 -3 4 -6 -2 -5 -13z"/>
<path d="M682 410 c-8 -14 -23 -20 -47 -20 -19 0 -35 -4 -35 -9 0 -5 -3 -16
-6 -25 -5 -13 1 -16 25 -16 35 0 37 -8 17 -53 -64 -142 -67 -157 -32 -157 20
0 28 12 56 78 44 103 54 112 69 70 18 -46 41 -109 52 -135 7 -19 12 -21 31
-14 27 10 27 11 -12 114 -17 43 -30 81 -30 83 0 3 11 9 25 14 15 6 25 17 25
30 0 16 -7 20 -33 20 -20 0 -39 8 -50 20 -9 11 -23 20 -29 20 -7 0 -19 -9 -26
-20z"/>
<path d="M1212 410 c-8 -14 -23 -20 -47 -20 -19 0 -35 -4 -35 -9 0 -5 -3 -16
-6 -25 -5 -12 0 -16 19 -16 14 0 28 -4 31 -9 3 -4 -12 -49 -33 -99 -21 -50
-36 -93 -33 -96 3 -3 15 -6 27 -6 15 0 26 11 37 38 9 20 27 61 39 90 13 28 25
52 29 52 3 0 21 -40 39 -90 28 -76 37 -90 55 -90 13 0 25 2 28 5 3 3 -10 46
-28 96 -34 89 -36 109 -9 109 12 0 25 21 25 41 0 5 -15 9 -33 9 -20 0 -39 8
-50 20 -9 11 -23 20 -29 20 -7 0 -19 -9 -26 -20z"/>
<path d="M450 391 c-15 -28 -13 -31 18 -31 l28 0 -3 -87 c-5 -96 -15 -129 -45
-136 -14 -4 -19 -12 -16 -29 7 -50 85 -24 108 37 5 14 10 80 10 146 l0 119
-45 0 c-34 0 -47 -5 -55 -19z"/>
<path d="M866 394 c-9 -24 -7 -34 7 -34 14 0 11 -159 -4 -175 -5 -5 -9 -20 -9
-33 0 -20 4 -23 33 -20 31 3 32 5 35 53 4 68 10 86 23 63 12 -21 98 -25 117
-6 12 12 17 124 6 152 -9 24 -199 24 -208 0z m152 -66 c3 -27 1 -28 -38 -28
-42 0 -58 15 -46 46 4 11 17 14 43 12 33 -3 38 -7 41 -30z"/>
<path d="M1390 270 l0 -140 25 0 c24 0 24 2 27 92 4 111 15 120 78 61 42 -39
45 -50 34 -115 -6 -36 -5 -38 20 -38 38 0 46 26 46 160 l0 121 -27 -3 c-25 -3
-28 -7 -31 -46 l-3 -42 -37 30 c-20 16 -44 30 -53 30 -9 0 -19 7 -23 15 -3 8
-17 15 -31 15 l-25 0 0 -140z"/>
<path d="M690 186 c-21 -23 -22 -56 -2 -56 17 0 54 49 49 64 -9 22 -20 20 -47
-8z"/>
<path d="M1220 186 c-21 -23 -22 -56 -2 -56 17 0 54 49 49 64 -9 22 -20 20
-47 -8z"/>
</g>
</svg>
